<svg xmlns="http://www.w3.org/2000/svg" version="1.1" xmlns:xlink="http://www.w3.org/1999/xlink" xmlns:svgjs="http://svgjs.dev/svgjs" width="1000" height="1000" viewBox="0 0 1000 1000"><rect width="1000" height="1000" fill="#000000"></rect><g transform="matrix(0.7,0,0,0.7,149.57575757575756,336.2201092678639)"><svg viewBox="0 0 396 185" data-background-color="#003366" preserveAspectRatio="xMidYMid meet" height="467" width="1000" xmlns="http://www.w3.org/2000/svg" xmlns:xlink="http://www.w3.org/1999/xlink"><defs></defs><g id="tight-bounds" transform="matrix(1,0,0,1,0.2400000000000091,0.1866925220103326)"><svg viewBox="0 0 395.52 184.62661495597933" height="184.62661495597933" width="395.52"><g><svg viewBox="0 0 508.39691436030876 237.3169532575059" height="184.62661495597933" width="395.52"><g><rect width="5.659892375722011" height="237.3169532575059" x="174.8119405408281" y="0" fill="#ffffff" opacity="1" stroke-width="0" stroke="transparent" fill-opacity="1" class="rect-ei-0" data-fill-palette-color="primary" rx="1%" id="ei-0" data-palette-color="#ffffff"></rect></g><g transform="matrix(1,0,0,1,195.28830510430407,0.5903406797450259)"><svg viewBox="0 0 313.10860925600474 236.13627189801585" height="236.13627189801585" width="313.10860925600474"><g><svg viewBox="0 0 313.10860925600474 236.13627189801585" height="236.13627189801585" width="313.10860925600474"><g><svg viewBox="0 0 313.10860925600474 198.76400000000004" height="198.76400000000004" width="313.10860925600474"><g transform="matrix(1,0,0,1,0,0)"><svg width="313.10860925600474" viewBox="0.949999999999994 -36.349999999999994 268.90000000000003 164.05" height="198.76400000000004" data-palette-color="#ffffff"><svg></svg><svg></svg><svg></svg><g class="undefined-text-0" data-fill-palette-color="primary" id="text-0"><path d="M10.5-10.25v0c0 2.3 1.66 3.45 4.98 3.45 3.313 0 4.97-1.033 4.97-3.1v0c0-1.1-0.567-2-1.7-2.7-1.133-0.7-2.507-1.283-4.12-1.75-1.62-0.467-3.237-1.01-4.85-1.63-1.62-0.613-2.997-1.58-4.13-2.9-1.133-1.313-1.7-2.953-1.7-4.92v0c0-8.367 5.383-12.55 16.15-12.55v0c3.933 0 6.91 0.74 8.93 2.22 2.013 1.487 3.02 3.547 3.02 6.18v0c0 0.967-0.123 1.89-0.37 2.77-0.253 0.887-0.513 1.513-0.78 1.88v0l-0.4 0.6h-8.85c0.733-0.767 1.1-1.733 1.1-2.9v0c0-2.167-1.417-3.25-4.25-3.25v0c-3.567 0-5.35 1.133-5.35 3.4v0c0 1.133 0.567 2.033 1.7 2.7 1.133 0.667 2.51 1.19 4.13 1.57 1.613 0.387 3.237 0.863 4.87 1.43 1.633 0.567 3.017 1.507 4.15 2.82 1.133 1.32 1.7 3.03 1.7 5.13v0c0 4.233-1.267 7.373-3.8 9.42-2.533 2.053-6.433 3.08-11.7 3.08-5.267 0-8.867-0.933-10.8-2.8v0c-1.433-1.4-2.15-3.333-2.15-5.8v0c0-0.933 0.1-1.95 0.3-3.05v0l0.15-0.8h9l-0.1 0.6c-0.067 0.333-0.1 0.633-0.1 0.9zM39.7-36h14c4.367 0 7.483 1.1 9.35 3.3v0c1.367 1.667 2.05 3.75 2.05 6.25v0c0 0.9-0.083 1.85-0.25 2.85v0l-1.95 11.15c-0.667 3.767-2.3 6.783-4.9 9.05-2.6 2.267-5.967 3.4-10.1 3.4v0h-14.55zM50.55-28.2v0h-3.25l-3.55 20.4h4.75c1.567 0 2.79-0.427 3.67-1.28 0.887-0.847 1.497-2.237 1.83-4.17v0l1.45-8.2c0.133-0.733 0.2-1.4 0.2-2v0c0-3.167-1.7-4.75-5.1-4.75zM73.15-36h9.4l5.35 17.25 11.5-17.25h9.45l-6.35 36h-9.05l3.6-20.3-7.7 12.1h-6.55l-3.4-12.1-3.6 20.3h-9zM143.45 0.9v0c0 4.867-1.243 8.86-3.73 11.98-2.48 3.113-5.843 4.67-10.09 4.67-4.253 0-7.08-1.05-8.48-3.15v0c-0.867-1.333-1.3-2.957-1.3-4.87 0-1.92 0.167-3.83 0.5-5.73v0l6.4-36.2h8.5l-1.5 8.35h12.45l-1.25 7.05h-9.8c2.367 1.9 4.343 4.367 5.93 7.4 1.58 3.033 2.37 6.533 2.37 10.5zM130.9 10.4c1.033 0 1.917-0.833 2.65-2.5 0.733-1.667 1.1-3.857 1.1-6.57 0-2.72-0.273-5.463-0.82-8.23-0.553-2.767-1.213-4.933-1.98-6.5v0l-3 17.15c-0.2 1.167-0.3 2.183-0.3 3.05v0c0 2.4 0.783 3.6 2.35 3.6zM162.65-24.75v0c3.6 0 6.317 0.783 8.15 2.35v0c1.433 1.233 2.15 2.95 2.15 5.15v0c0 0.733-0.083 1.533-0.25 2.4v0l-1.05 5.85c-0.633 3.533-2.107 6.033-4.42 7.5-2.32 1.467-5.413 2.2-9.28 2.2-3.867 0-6.7-0.733-8.5-2.2v0c-1.333-1.1-2-2.75-2-4.95v0c0-0.767 0.083-1.617 0.25-2.55v0l1.05-5.85c1.167-6.6 5.8-9.9 13.9-9.9zM163.35-10.1l0.65-3.75c0.067-0.333 0.1-0.76 0.1-1.28 0-0.513-0.217-1.087-0.65-1.72-0.433-0.633-1.19-0.95-2.27-0.95-1.087 0-1.997 0.357-2.73 1.07-0.733 0.72-1.2 1.68-1.4 2.88v0l-0.65 3.75c-0.067 0.333-0.1 0.757-0.1 1.27 0 0.52 0.217 1.08 0.65 1.68 0.433 0.6 1.193 0.9 2.28 0.9 1.08 0 1.987-0.377 2.72-1.13 0.733-0.747 1.2-1.653 1.4-2.72zM200.15-18.95v0c0 1.133-0.19 2.233-0.57 3.3-0.387 1.067-0.763 1.85-1.13 2.35v0l-0.55 0.7h-7.55c0.833-0.767 1.25-1.717 1.25-2.85v0c0-0.6-0.19-1.093-0.57-1.48-0.387-0.38-0.913-0.57-1.58-0.57v0c-1.133 0-2.117 0.567-2.95 1.7v0l-2.8 15.8h-8.5l4.25-24.05h7.9l-0.6 3.35c1.9-2.7 4.2-4.05 6.9-4.05v0c2.167 0 3.793 0.517 4.88 1.55 1.08 1.033 1.62 2.45 1.62 4.25z" data-fill-palette-color="primary" fill="#ffffff" opacity="1"></path><path d="M17.85 45.95v0h-5.95l-1.95 10.95h-9l6.35-36h15.25c3.767 0 6.45 0.867 8.05 2.6v0c1.167 1.333 1.75 3.033 1.75 5.1v0c0 0.7-0.067 1.433-0.2 2.2v0l-1 5.65c-0.5 2.767-1.967 5.04-4.4 6.82-2.433 1.787-5.4 2.68-8.9 2.68zM19.4 28.7v0h-4.5l-1.65 9.45h4.45c2.733 0 4.317-1.217 4.75-3.65v0l0.35-2.05c0.067-0.3 0.1-0.7 0.1-1.2 0-0.5-0.25-1.05-0.75-1.65-0.5-0.6-1.417-0.9-2.75-0.9zM44.9 32.85l-2.35 13.3c-0.1 0.6-0.15 1.2-0.15 1.8v0c0 1.6 0.9 2.4 2.7 2.4v0c1.467 0 2.683-0.517 3.65-1.55v0l2.8-15.95h8.5l-4.4 24.85c-0.733 4.233-2.407 7.583-5.02 10.05-2.62 2.467-5.613 3.7-8.98 3.7-3.367 0-5.79-0.617-7.27-1.85-1.487-1.233-2.23-2.85-2.23-4.85v0c0-2.833 1.75-5.35 5.25-7.55v0c-1.9-0.467-3.1-1.417-3.6-2.85v0c-0.3-0.8-0.45-1.7-0.45-2.7 0-1 0.083-2.017 0.25-3.05v0l2.8-15.75zM42.8 64.3v0c2.167 0 3.583-1.967 4.25-5.9v0l0.5-2.9c-4.633 2.167-6.95 4.35-6.95 6.55v0c0 0.667 0.193 1.21 0.58 1.63 0.38 0.413 0.92 0.62 1.62 0.62zM72.2 57.6v0c-3.867 0-6.65-0.867-8.35-2.6v0c-1.267-1.267-1.9-2.967-1.9-5.1v0c0-0.7 0.067-1.45 0.2-2.25v0l3.4-19.35 9.15-3.8-1.45 8.35h13.8l-1.25 7.05h-13.8l-1 5.65c-0.133 0.633-0.2 1.2-0.2 1.7v0c0 2.1 1 3.15 3 3.15v0c1.067 0 1.96-0.45 2.68-1.35 0.713-0.9 1.203-2.1 1.47-3.6v0h8.3c-1.4 8.1-6.083 12.15-14.05 12.15zM114.9 50.5v0c0.767 0 1.45-0.167 2.05-0.5v0l-0.25 5.65c-1.567 1.3-3.35 1.95-5.35 1.95v0c-4.533 0-6.8-1.9-6.8-5.7v0c0-0.667 0.067-1.383 0.2-2.15v0l1.1-6.15c0.1-0.6 0.15-1.2 0.15-1.8v0c0-1.6-0.84-2.4-2.52-2.4-1.687 0-2.997 0.567-3.93 1.7v0l-2.8 15.8h-8.5l6.7-37.95h8.5l-2.85 16.15c1.833-1.967 4.133-2.95 6.9-2.95v0c3.367 0 5.55 0.75 6.55 2.25v0c0.7 1 1.05 2.117 1.05 3.35 0 1.233-0.1 2.367-0.3 3.4v0l-1.35 7.45c-0.033 0.2-0.05 0.383-0.05 0.55v0c0 0.9 0.5 1.35 1.5 1.35zM134.85 32.15v0c3.6 0 6.317 0.783 8.15 2.35v0c1.433 1.233 2.15 2.95 2.15 5.15v0c0 0.733-0.083 1.533-0.25 2.4v0l-1.05 5.85c-0.633 3.533-2.107 6.033-4.42 7.5-2.32 1.467-5.413 2.2-9.28 2.2-3.867 0-6.7-0.733-8.5-2.2v0c-1.333-1.1-2-2.75-2-4.95v0c0-0.767 0.083-1.617 0.25-2.55v0l1.05-5.85c1.167-6.6 5.8-9.9 13.9-9.9zM135.55 46.8l0.65-3.75c0.067-0.333 0.1-0.76 0.1-1.28 0-0.513-0.217-1.087-0.65-1.72-0.433-0.633-1.19-0.95-2.27-0.95-1.087 0-1.997 0.357-2.73 1.07-0.733 0.72-1.2 1.68-1.4 2.88v0l-0.65 3.75c-0.067 0.333-0.1 0.757-0.1 1.27 0 0.52 0.217 1.08 0.65 1.68 0.433 0.6 1.193 0.9 2.28 0.9 1.08 0 1.987-0.377 2.72-1.13 0.733-0.747 1.2-1.653 1.4-2.72zM164.2 41.55v0c0-1.433-0.69-2.15-2.07-2.15-1.387 0-2.53 0.517-3.43 1.55v0l-2.8 15.95h-8.5l4.25-24.05h7.9l-0.55 2.95c1.967-2.433 4.45-3.65 7.45-3.65 3 0 4.95 0.733 5.85 2.2v0c0.567 0.933 0.85 2 0.85 3.2 0 1.2-0.083 2.317-0.25 3.35v0l-1.35 7.7c-0.033 0.2-0.05 0.383-0.05 0.55v0c0 0.9 0.5 1.35 1.5 1.35v0c0.767 0 1.45-0.167 2.05-0.5v0l-0.25 5.65c-1.567 1.3-3.35 1.95-5.35 1.95v0c-4.533 0-6.8-1.9-6.8-5.7v0c0-0.667 0.067-1.383 0.2-2.15v0l1.2-6.65c0.1-0.6 0.15-1.117 0.15-1.55z" data-fill-palette-color="primary" fill="#ffffff" opacity="1"></path><path d="M7.3 77.8h14c4.367 0 7.483 1.1 9.35 3.3v0c1.367 1.667 2.05 3.75 2.05 6.25v0c0 0.9-0.083 1.85-0.25 2.85v0l-1.95 11.15c-0.667 3.767-2.3 6.783-4.9 9.05-2.6 2.267-5.967 3.4-10.1 3.4v0h-14.55zM18.15 85.6v0h-3.25l-3.55 20.4h4.75c1.567 0 2.793-0.427 3.68-1.28 0.88-0.847 1.487-2.237 1.82-4.17v0l1.45-8.2c0.133-0.733 0.2-1.4 0.2-2v0c0-3.167-1.7-4.75-5.1-4.75zM44.65 114.5v0c-6.933 0-10.4-2.4-10.4-7.2v0c0-0.667 0.067-1.383 0.2-2.15v0l1.05-6.2c0.567-3.2 2.043-5.66 4.43-7.38 2.38-1.713 5.537-2.57 9.47-2.57v0c6.7 0 10.05 2.533 10.05 7.6v0c0 0.733-0.067 1.533-0.2 2.4v0l-0.6 3.55h-15.25l-0.2 1.15c-0.067 0.4-0.1 0.767-0.1 1.1v0c0 1.833 1.083 2.75 3.25 2.75v0c0.8 0 1.483-0.25 2.05-0.75 0.567-0.5 0.9-1.083 1-1.75v0l8.3 0.1c-1.1 6.233-5.45 9.35-13.05 9.35zM43.9 99.5h6.75c0.133-0.567 0.2-1.093 0.2-1.58 0-0.48-0.217-0.97-0.65-1.47-0.433-0.5-1.123-0.75-2.07-0.75-0.953 0-1.82 0.317-2.6 0.95-0.787 0.633-1.33 1.583-1.63 2.85zM79 89.75h8.5c0.467 1.4 0.7 3.257 0.7 5.57 0 2.32-0.283 4.547-0.85 6.68-0.567 2.133-1.423 4.157-2.57 6.07-1.153 1.92-2.753 3.473-4.8 4.66-2.053 1.18-4.413 1.77-7.08 1.77v0c-4.167 0-7.05-0.85-8.65-2.55v0c-1.067-1.133-1.6-2.867-1.6-5.2v0c0-1.1 0.133-2.35 0.4-3.75v0l2.35-13.25h8.5l-2.35 13.3c-0.1 0.5-0.15 0.95-0.15 1.35v0c0 1.9 0.983 2.85 2.95 2.85v0c3.467 0 5.2-3.633 5.2-10.9v0c0-1.7-0.133-3.583-0.4-5.65v0zM101.1 114.5v0c-6.933 0-10.4-2.4-10.4-7.2v0c0-0.667 0.067-1.383 0.2-2.15v0l1.05-6.2c0.567-3.2 2.043-5.66 4.43-7.38 2.38-1.713 5.537-2.57 9.47-2.57v0c6.7 0 10.05 2.533 10.05 7.6v0c0 0.733-0.067 1.533-0.2 2.4v0l-0.6 3.55h-15.25l-0.2 1.15c-0.067 0.4-0.1 0.767-0.1 1.1v0c0 1.833 1.083 2.75 3.25 2.75v0c0.8 0 1.483-0.25 2.05-0.75 0.567-0.5 0.9-1.083 1-1.75v0l8.3 0.1c-1.1 6.233-5.45 9.35-13.05 9.35zM100.35 99.5h6.75c0.133-0.567 0.2-1.093 0.2-1.58 0-0.48-0.217-0.97-0.65-1.47-0.433-0.5-1.123-0.75-2.07-0.75-0.953 0-1.82 0.317-2.6 0.95-0.787 0.633-1.33 1.583-1.63 2.85zM127.9 106.1v0c0 0.867 0.44 1.3 1.32 1.3 0.887 0 1.63-0.167 2.23-0.5v0l-0.25 5.65c-1.6 1.3-3.4 1.95-5.4 1.95v0c-3.033 0-5-0.7-5.9-2.1v0c-0.567-0.9-0.85-1.883-0.85-2.95 0-1.067 0.067-2 0.2-2.8v0l5.45-30.8h8.5l-5.25 29.65c-0.033 0.2-0.05 0.4-0.05 0.6zM149.5 89.05v0c3.6 0 6.317 0.783 8.15 2.35v0c1.433 1.233 2.15 2.95 2.15 5.15v0c0 0.733-0.083 1.533-0.25 2.4v0l-1.05 5.85c-0.633 3.533-2.11 6.033-4.43 7.5-2.313 1.467-5.403 2.2-9.27 2.2-3.867 0-6.7-0.733-8.5-2.2v0c-1.333-1.1-2-2.75-2-4.95v0c0-0.767 0.083-1.617 0.25-2.55v0l1.05-5.85c1.167-6.6 5.8-9.9 13.9-9.9zM150.2 103.7l0.65-3.75c0.067-0.333 0.1-0.76 0.1-1.28 0-0.513-0.217-1.087-0.65-1.72-0.433-0.633-1.193-0.95-2.28-0.95-1.08 0-1.987 0.357-2.72 1.07-0.733 0.72-1.2 1.68-1.4 2.88v0l-0.65 3.75c-0.067 0.333-0.1 0.757-0.1 1.27 0 0.52 0.217 1.08 0.65 1.68 0.433 0.6 1.19 0.9 2.27 0.9 1.087 0 1.997-0.377 2.73-1.13 0.733-0.747 1.2-1.653 1.4-2.72zM180.1 89.1v0c3.4 0 5.75 0.9 7.05 2.7v0c0.933 1.233 1.4 2.8 1.4 4.7v0c0 0.767-0.083 1.583-0.25 2.45v0l-1 5.85c-0.567 3.167-1.783 5.573-3.65 7.22-1.867 1.653-4.2 2.48-7 2.48-2.8 0-4.75-0.75-5.85-2.25v0l-2.7 15.45h-8.5l6.7-37.95h7.7l-0.25 1.35c1.567-1.333 3.683-2 6.35-2zM174.9 107.3v0c0.933 0 1.8-0.3 2.6-0.9 0.8-0.6 1.3-1.5 1.5-2.7v0l0.65-3.75c0.067-0.333 0.1-0.75 0.1-1.25 0-0.5-0.217-1.033-0.65-1.6-0.433-0.567-1.183-0.85-2.25-0.85v0c-1.733 0-2.867 0.417-3.4 1.25v0l-1.5 8.4c0.467 0.933 1.45 1.4 2.95 1.4zM201.65 114.5v0c-6.933 0-10.4-2.4-10.4-7.2v0c0-0.667 0.067-1.383 0.2-2.15v0l1.05-6.2c0.567-3.2 2.04-5.66 4.42-7.38 2.387-1.713 5.547-2.57 9.48-2.57v0c6.7 0 10.05 2.533 10.05 7.6v0c0 0.733-0.067 1.533-0.2 2.4v0l-0.6 3.55h-15.25l-0.2 1.15c-0.067 0.4-0.1 0.767-0.1 1.1v0c0 1.833 1.083 2.75 3.25 2.75v0c0.8 0 1.483-0.25 2.05-0.75 0.567-0.5 0.9-1.083 1-1.75v0l8.3 0.1c-1.1 6.233-5.45 9.35-13.05 9.35zM200.9 99.5h6.75c0.133-0.567 0.2-1.093 0.2-1.58 0-0.48-0.217-0.97-0.65-1.47-0.433-0.5-1.123-0.75-2.07-0.75-0.953 0-1.823 0.317-2.61 0.95-0.78 0.633-1.32 1.583-1.62 2.85zM243.4 94.85v0c0 1.133-0.193 2.233-0.58 3.3-0.38 1.067-0.753 1.85-1.12 2.35v0l-0.55 0.7h-7.55c0.833-0.767 1.25-1.717 1.25-2.85v0c0-0.6-0.193-1.093-0.58-1.48-0.38-0.38-0.903-0.57-1.57-0.57v0c-1.133 0-2.117 0.567-2.95 1.7v0l-2.8 15.8h-8.5l4.25-24.05h7.9l-0.6 3.35c1.9-2.7 4.2-4.05 6.9-4.05v0c2.167 0 3.79 0.517 4.87 1.55 1.087 1.033 1.63 2.45 1.63 4.25zM269.85 94.95v0c0 1.1-0.333 2.117-1 3.05v0h-8.2c0.267-0.2 0.4-0.533 0.4-1 0-0.467-0.267-0.843-0.8-1.13-0.533-0.28-1.217-0.42-2.05-0.42v0c-2.5 0-3.75 0.767-3.75 2.3v0c0 0.6 0.467 1.033 1.4 1.3 0.933 0.267 2.067 0.483 3.4 0.65 1.333 0.167 2.667 0.407 4 0.72 1.333 0.32 2.467 0.947 3.4 1.88 0.933 0.933 1.4 2.183 1.4 3.75v0c0 2.767-1.107 4.867-3.32 6.3-2.22 1.433-5.447 2.15-9.68 2.15-4.233 0-7.2-0.683-8.9-2.05v0c-1.333-1.067-2-2.533-2-4.4v0c0-0.533 0.05-1.083 0.15-1.65v0l8.35-0.1c-0.067 0.467 0.207 0.873 0.82 1.22 0.62 0.353 1.53 0.53 2.73 0.53 1.2 0 2.067-0.127 2.6-0.38 0.533-0.247 0.8-0.72 0.8-1.42v0c0-0.467-0.467-0.793-1.4-0.98-0.933-0.18-2.073-0.337-3.42-0.47-1.353-0.133-2.707-0.35-4.06-0.65-1.347-0.3-2.487-0.933-3.42-1.9-0.933-0.967-1.4-2.233-1.4-3.8v0c0-3.033 1.177-5.367 3.53-7 2.347-1.633 5.737-2.45 10.17-2.45v0c6.833 0 10.25 1.983 10.25 5.95z" data-fill-palette-color="primary" fill="#ffffff" opacity="1"></path></g></svg></g></svg></g><g transform="matrix(1,0,0,1,0,213.580472187754)"><svg viewBox="0 0 313.10860925600474 22.55579971026186" height="22.55579971026186" width="313.10860925600474"><g transform="matrix(1,0,0,1,0,0)"><svg width="313.10860925600474" viewBox="3.8299999999999996 -39.84 735.01 52.95" height="22.55579971026186" data-palette-color="#ff9966"><path d="M4.27-0.37L3.86-9.08Q3.86-9.11 3.85-9.13 3.83-9.16 3.83-9.18L3.83-9.18Q3.83-9.59 4.27-9.59L4.27-9.59Q4.49-9.59 4.76-9.38L4.76-9.38Q6.08-8.13 7.69-7.4 9.3-6.67 11.21-6.67L11.21-6.67Q11.72-6.67 12.38-6.77 13.04-6.88 13.62-7.14 14.21-7.4 14.61-7.81 15.01-8.23 15.01-8.86L15.01-8.86Q15.01-9.57 14.67-10.13 14.33-10.69 13.77-11.08L13.77-11.08Q13.55-11.23 13.11-11.57 12.67-11.91 12.11-12.35 11.55-12.79 10.94-13.29 10.33-13.79 9.78-14.25 9.23-14.7 8.79-15.06 8.35-15.43 8.13-15.63L8.13-15.63Q6.69-16.7 5.85-17.8 5-18.9 4.57-20.09 4.13-21.29 4-22.57 3.88-23.85 3.88-25.29L3.88-25.29Q3.88-27.44 4.91-29.37 5.93-31.3 7.8-32.73 9.67-34.16 12.28-35 14.89-35.84 18.09-35.84L18.09-35.84Q18.48-35.84 19.26-35.75 20.04-35.67 20.98-35.47 21.92-35.28 22.9-34.94 23.88-34.59 24.68-34.06L24.68-34.06Q24.95-33.86 25.11-33.67 25.27-33.47 25.32-33.06L25.32-33.06Q25.44-31.08 25.51-29.16 25.59-27.25 25.71-25.1L25.71-25.1Q25.71-24.68 25.54-24.55 25.37-24.41 25.1-24.41L25.1-24.41Q24.83-24.41 24.68-24.56L24.68-24.56Q23.97-25.27 23.22-25.95 22.46-26.64 21.63-27.16 20.8-27.69 19.86-28 18.92-28.32 17.82-28.32L17.82-28.32Q17.16-28.32 16.5-28.21 15.84-28.1 15.31-27.81 14.77-27.51 14.44-27 14.11-26.49 14.11-25.71L14.11-25.71Q14.11-24.88 14.32-24.27 14.53-23.66 15.36-23.12L15.36-23.12 21.22-19.14Q22.83-17.99 23.83-16.86 24.83-15.72 25.39-14.6 25.95-13.48 26.16-12.39 26.37-11.3 26.37-10.25L26.37-10.25Q26.37-8.54 25.81-7.03 25.24-5.52 24.27-4.24 23.29-2.95 21.98-1.94 20.68-0.93 19.19-0.21 17.7 0.51 16.1 0.89 14.5 1.27 12.96 1.27L12.96 1.27Q11.77 1.27 10.61 1.23 9.45 1.2 8.35 1.04 7.25 0.88 6.23 0.55 5.2 0.22 4.27-0.37L4.27-0.37ZM40.4-17.41L40.33-17.04Q40.18-14.7 40.07-13.23 39.96-11.77 39.89-10.85 39.82-9.94 39.77-9.41 39.72-8.89 39.69-8.42L39.69-8.42Q40.26-6.96 41.35-6.04 42.45-5.13 43.99-5.13L43.99-5.13Q45.33-5.13 46.35-5.97 47.36-6.81 48.03-8.15 48.7-9.5 49.05-11.16 49.39-12.82 49.39-14.45L49.39-14.45Q49.39-15.8 49.16-16.94 48.92-18.09 48.46-18.93 48-19.78 47.3-20.25 46.6-20.73 45.65-20.73L45.65-20.73Q44.87-20.73 44.1-20.42 43.33-20.12 42.62-19.64 41.92-19.17 41.34-18.57 40.77-17.97 40.4-17.41L40.4-17.41ZM40.82-24.19L40.82-24.19Q42.87-25.59 45.11-26.42 47.36-27.25 49.8-27.25L49.8-27.25Q52.1-27.25 53.77-26.31 55.44-25.37 56.54-23.77 57.64-22.17 58.16-20.09 58.69-18.02 58.69-15.75L58.69-15.75Q58.69-13.77 58.3-11.74 57.91-9.72 57.15-7.82 56.39-5.93 55.27-4.27 54.15-2.61 52.7-1.38 51.24-0.15 49.46 0.56 47.68 1.27 45.6 1.27L45.6 1.27Q43.77 1.27 42.1 0.54 40.43-0.2 38.96-1.37L38.96-1.37Q38.96-1.25 38.9-0.48 38.84 0.29 38.74 1.39 38.64 2.49 38.52 3.75 38.4 5 38.3 6.1 38.21 7.2 38.14 7.97 38.08 8.74 38.08 8.86L38.08 8.86Q38.08 9.06 38.1 9.19 38.11 9.33 38.11 9.45L38.11 9.45Q38.11 9.64 37.92 9.78 37.74 9.91 37.11 10.08L37.11 10.08 30.69 11.72Q30.42 11.79 29.98 11.95 29.54 12.11 29.12 12.11L29.12 12.11Q28.78 12.11 28.53 11.94 28.27 11.77 28.27 11.3L28.27 11.3 31.25-24.44Q31.32-25.24 31.43-25.55 31.54-25.85 31.98-25.95L31.98-25.95Q34.2-26.39 36.55-26.84 38.89-27.29 41.11-28L41.11-28Q41.31-28 41.34-27.94 41.38-27.88 41.38-27.76L41.38-27.76Q41.38-27.71 41.37-27.61 41.35-27.51 41.29-27.17 41.23-26.83 41.12-26.14 41.01-25.44 40.82-24.19ZM76.31-27.25L76.31-27.25Q78.63-27.25 80.52-26.38 82.42-25.51 83.77-24.13 85.13-22.75 85.86-21.04 86.59-19.34 86.59-17.63L86.59-17.63Q86.59-16.11 85.66-14.59 84.74-13.06 83.06-11.84 81.39-10.62 79.05-9.86 76.7-9.11 73.9-9.11L73.9-9.11Q72.43-9.11 70.82-9.4L70.82-9.4Q70.92-8.35 71.43-7.59 71.94-6.84 72.72-6.35 73.51-5.86 74.49-5.63 75.48-5.4 76.53-5.4L76.53-5.4Q77.7-5.4 78.79-5.6 79.88-5.81 80.88-6.15 81.88-6.49 82.81-6.91 83.74-7.32 84.57-7.74L84.57-7.74Q84.79-7.79 84.94-7.82 85.1-7.86 85.25-7.86L85.25-7.86Q85.25-7.86 85.24-7.47 85.22-7.08 85.22-6.37 85.22-5.66 85.21-4.66 85.2-3.66 85.18-2.44L85.18-2.44Q85.25-2.32 85.27-2.2 85.3-2.08 85.3-2L85.3-2Q85.3-1.71 84.76-1.37 84.22-1.03 83.36-0.66 82.49-0.29 81.38 0.05 80.27 0.39 79.12 0.67 77.97 0.95 76.9 1.11 75.83 1.27 75.02 1.27L75.02 1.27Q72.38 1.27 69.9 0.35 67.43-0.56 65.51-2.27 63.59-3.98 62.45-6.42 61.3-8.86 61.3-11.91L61.3-11.91Q61.3-15.11 62.4-17.91 63.5-20.7 65.49-22.78 67.48-24.85 70.23-26.05 72.99-27.25 76.31-27.25ZM76.02-20.75L76.02-20.75Q75.02-20.75 74.18-20.32 73.33-19.9 72.64-19.1 71.94-18.31 71.43-17.2 70.92-16.09 70.6-14.75L70.6-14.75Q73.12-15.19 74.78-15.67 76.44-16.16 77.44-16.66 78.44-17.16 78.85-17.66 79.27-18.16 79.27-18.63L79.27-18.63Q79.27-19.07 78.94-19.46 78.61-19.85 78.12-20.14 77.63-20.43 77.06-20.59 76.48-20.75 76.02-20.75ZM89.15-11.91L89.15-11.91Q89.15-15.11 90.34-17.91 91.52-20.7 93.61-22.78 95.7-24.85 98.54-26.05 101.38-27.25 104.73-27.25L104.73-27.25Q107-27.25 108.61-26.88 110.22-26.51 111.25-26.06 112.27-25.61 112.75-25.23 113.22-24.85 113.22-24.83L113.22-24.83Q113.22-24.68 113.12-24.01 113.01-23.34 112.87-22.45 112.74-21.56 112.63-20.62 112.52-19.68 112.52-18.99L112.52-18.99Q112.52-18.87 112.44-18.73 112.37-18.58 112.05-18.58L112.05-18.58Q111.76-18.58 111.2-18.79 110.64-18.99 109.82-19.24 109-19.48 107.94-19.69 106.88-19.9 105.58-19.9L105.58-19.9Q103.97-19.9 102.68-19.32 101.38-18.75 100.46-17.74 99.53-16.72 99.03-15.33 98.53-13.94 98.53-12.33L98.53-12.33Q98.53-10.64 99.05-9.46 99.58-8.28 100.46-7.53 101.34-6.79 102.48-6.45 103.63-6.1 104.9-6.1L104.9-6.1Q106.36-6.1 107.85-6.51 109.34-6.91 110.66-7.64L110.66-7.64Q110.71-7.67 110.86-7.67L110.86-7.67Q110.98-7.67 111.04-7.54 111.1-7.42 111.1-7.08L111.1-7.08Q111.1-6.3 111.1-5.19 111.1-4.08 111.09-3.06 111.08-2.05 111.05-1.34 111.03-0.63 111-0.63L111-0.63Q110.12-0.05 109.1 0.32 108.07 0.68 106.99 0.9 105.9 1.12 104.8 1.2 103.7 1.27 102.68 1.27L102.68 1.27Q99.82 1.27 97.36 0.32 94.89-0.63 93.07-2.37 91.25-4.1 90.2-6.53 89.15-8.96 89.15-11.91ZM115.98-10.35L115.98-10.35Q116.3-13.7 116.62-16.97 116.93-20.24 117.18-23.68L117.18-23.68Q117.23-24.49 117.34-24.79 117.45-25.1 117.89-25.2L117.89-25.2Q119.96-25.61 122.23-26.06 124.5-26.51 126.63-27.22L126.63-27.22Q126.7-27.25 126.85-27.25L126.85-27.25Q127.11-27.25 127.11-27.05L127.11-27.05 124.92-3.27Q124.84-2.47 124.75-2.16 124.65-1.86 124.21-1.76L124.21-1.76Q122.13-1.12 120.01-0.34 117.89 0.44 115.52 1.25L115.52 1.25Q115.44 1.27 115.3 1.27L115.3 1.27Q115.03 1.27 115.03 1.03L115.03 1.03Q115.03 1 115.08 0.37 115.13-0.27 115.21-1.27 115.3-2.27 115.4-3.52 115.49-4.76 115.6-6.01 115.71-7.25 115.81-8.4 115.91-9.55 115.98-10.35ZM117.81-29.83L117.81-29.83Q117.89-30.88 117.92-31.45 117.96-32.01 117.98-32.29 118.01-32.57 118.01-32.64 118.01-32.71 118.02-32.75 118.03-32.79 118.04-32.9 118.06-33.01 118.08-33.36 118.11-33.72 118.15-34.4 118.2-35.08 118.3-36.28L118.3-36.28Q118.35-37.08 118.46-37.39 118.57-37.7 119.01-37.79L119.01-37.79Q121.08-38.21 123.35-38.66 125.62-39.11 127.75-39.82L127.75-39.82Q127.82-39.84 127.97-39.84L127.97-39.84Q128.04-39.7 128.16-39.65L128.16-39.65 128.24-39.6 127.7-32.91Q127.63-32.1 127.52-31.79 127.41-31.47 126.99-31.4L126.99-31.4Q124.92-31.01 122.79-30.54 120.67-30.08 118.3-29.61L118.3-29.61Q118.23-29.59 118.08-29.59L118.08-29.59Q117.81-29.59 117.81-29.83ZM144.84-27.25L144.84-27.25Q147.16-27.25 149.05-26.38 150.94-25.51 152.29-24.13 153.65-22.75 154.38-21.04 155.11-19.34 155.11-17.63L155.11-17.63Q155.11-16.11 154.19-14.59 153.26-13.06 151.59-11.84 149.91-10.62 147.57-9.86 145.23-9.11 142.42-9.11L142.42-9.11Q140.95-9.11 139.34-9.4L139.34-9.4Q139.44-8.35 139.95-7.59 140.47-6.84 141.25-6.35 142.03-5.86 143.02-5.63 144.01-5.4 145.06-5.4L145.06-5.4Q146.23-5.4 147.31-5.6 148.4-5.81 149.4-6.15 150.4-6.49 151.33-6.91 152.26-7.32 153.09-7.74L153.09-7.74Q153.31-7.79 153.47-7.82 153.63-7.86 153.77-7.86L153.77-7.86Q153.77-7.86 153.76-7.47 153.75-7.08 153.75-6.37 153.75-5.66 153.74-4.66 153.72-3.66 153.7-2.44L153.7-2.44Q153.77-2.32 153.8-2.2 153.82-2.08 153.82-2L153.82-2Q153.82-1.71 153.28-1.37 152.75-1.03 151.88-0.66 151.01-0.29 149.9 0.05 148.79 0.39 147.64 0.67 146.5 0.95 145.42 1.11 144.35 1.27 143.54 1.27L143.54 1.27Q140.91 1.27 138.43 0.35 135.95-0.56 134.03-2.27 132.12-3.98 130.97-6.42 129.82-8.86 129.82-11.91L129.82-11.91Q129.82-15.11 130.92-17.91 132.02-20.7 134.01-22.78 136-24.85 138.76-26.05 141.52-27.25 144.84-27.25ZM144.54-20.75L144.54-20.75Q143.54-20.75 142.7-20.32 141.86-19.9 141.16-19.1 140.47-18.31 139.95-17.2 139.44-16.09 139.12-14.75L139.12-14.75Q141.64-15.19 143.3-15.67 144.96-16.16 145.96-16.66 146.96-17.16 147.38-17.66 147.79-18.16 147.79-18.63L147.79-18.63Q147.79-19.07 147.46-19.46 147.13-19.85 146.64-20.14 146.15-20.43 145.58-20.59 145.01-20.75 144.54-20.75ZM158.6-0.07L158.29-6.74Q158.29-6.76 158.27-6.77 158.26-6.79 158.26-6.81L158.26-6.81Q158.26-7.13 158.6-7.13L158.6-7.13Q158.82-7.13 158.99-6.96L158.99-6.96Q159.97-6.03 161.23-5.44 162.49-4.86 163.95-4.86L163.95-4.86Q164.34-4.86 164.85-4.94 165.37-5.03 165.83-5.22 166.29-5.42 166.6-5.75 166.9-6.08 166.9-6.57L166.9-6.57Q166.9-7.1 166.64-7.56 166.37-8.01 165.93-8.3L165.93-8.3Q165.68-8.47 165.07-8.9 164.46-9.33 163.77-9.81 163.07-10.3 162.45-10.74 161.83-11.18 161.58-11.38L161.58-11.38Q160.48-12.21 159.84-13.06 159.19-13.92 158.85-14.83 158.51-15.75 158.41-16.75 158.31-17.75 158.31-18.87L158.31-18.87Q158.31-20.58 159.21-22.09 160.12-23.61 161.59-24.76 163.07-25.9 164.95-26.57 166.83-27.25 168.78-27.25L168.78-27.25Q170.4-27.25 171.96-26.76 173.52-26.27 174.86-25.1L174.86-25.1Q174.99-23.56 175.03-22.07 175.08-20.58 175.18-18.95L175.18-18.95Q175.18-18.63 175.03-18.52 174.89-18.41 174.69-18.41L174.69-18.41Q174.52-18.41 174.4-18.53L174.4-18.53Q173.84-19.07 173.25-19.59 172.67-20.12 172.02-20.52 171.37-20.92 170.64-21.18 169.91-21.44 169.08-21.44L169.08-21.44Q168.56-21.44 168.05-21.35 167.54-21.26 167.12-21.03 166.71-20.8 166.45-20.41 166.2-20.02 166.2-19.41L166.2-19.41Q166.2-18.7 166.37-18.19 166.54-17.68 167.17-17.19L167.17-17.19 171.71-14.11Q172.96-13.26 173.73-12.44 174.5-11.62 174.94-10.82 175.38-10.01 175.53-9.22 175.69-8.42 175.69-7.64L175.69-7.64Q175.69-5.44 174.68-3.77 173.67-2.1 172.06-0.99 170.44 0.12 168.41 0.7 166.37 1.27 164.32 1.27L164.32 1.27Q162.75 1.27 161.3 0.94 159.85 0.61 158.6-0.07L158.6-0.07ZM195.61 1.27L191.17 1.27Q190.9 1.22 190.78 1 190.65 0.78 190.65 0.51L190.65 0.51Q190.65 0.29 190.75 0.12L190.75 0.12 193.75-5.62Q193.78-5.71 193.84-6.37 193.9-7.03 193.97-8.02 194.05-9.01 194.13-10.23 194.22-11.45 194.32-12.65 194.41-13.84 194.5-14.93 194.58-16.02 194.66-16.75L194.66-16.75Q194.68-17.04 194.73-17.64 194.78-18.24 194.83-19.02 194.88-19.8 194.95-20.7 195.02-21.61 195.1-22.51L195.1-22.51 195.44-27.61Q194.78-27.47 194.07-27.31 193.36-27.15 192.69-27.03 192.02-26.9 191.42-26.82 190.82-26.73 190.39-26.73L190.39-26.73Q190.12-26.73 189.98-26.98 189.85-27.22 189.85-27.49L189.85-27.49Q189.85-27.81 189.99-27.95L189.99-27.95 196.2-33.74Q196.95-34.42 197.7-34.85 198.44-35.28 199.49-35.52 200.54-35.77 202.07-35.85 203.59-35.94 205.94-35.94L205.94-35.94Q209.94-35.94 213.04-35.11 216.14-34.28 218.29-32.74L218.29-32.74Q219.88-31.64 221.12-30.44 222.37-29.25 223.22-27.8 224.08-26.34 224.52-24.6 224.96-22.85 224.96-20.65L224.96-20.65Q224.96-16.48 223.71-13.23 222.47-9.99 220.32-7.56 218.17-5.13 215.3-3.44 212.43-1.76 209.17-0.71 205.91 0.34 202.43 0.81 198.95 1.27 195.61 1.27L195.61 1.27ZM205.35-28.13L205.35-28.13 205.06-25.17Q204.91-23.63 204.75-21.89 204.59-20.14 204.45-18.35 204.3-16.55 204.15-14.81 204.01-13.06 203.89-11.55 203.76-10.03 203.67-8.84 203.57-7.64 203.5-6.93L203.5-6.93 203.42-6.2Q206.38-6.2 208.42-7.15 210.45-8.11 211.72-9.78 212.99-11.45 213.57-13.7 214.14-15.94 214.14-18.53L214.14-18.53Q214.14-20.39 213.63-22.11 213.11-23.83 212.14-25.39L212.14-25.39Q211.16-26.95 209.75-27.73 208.33-28.52 206.55-28.52L206.55-28.52Q206.25-28.52 205.91-28.38 205.57-28.25 205.35-28.13ZM227.91-10.35L227.91-10.35Q228.22-13.7 228.54-16.97 228.86-20.24 229.1-23.68L229.1-23.68Q229.15-24.49 229.26-24.79 229.37-25.1 229.81-25.2L229.81-25.2Q231.89-25.61 234.16-26.06 236.43-26.51 238.55-27.22L238.55-27.22Q238.62-27.25 238.77-27.25L238.77-27.25Q239.04-27.25 239.04-27.05L239.04-27.05 236.84-3.27Q236.77-2.47 236.67-2.16 236.57-1.86 236.13-1.76L236.13-1.76Q234.06-1.12 231.94-0.34 229.81 0.44 227.44 1.25L227.44 1.25Q227.37 1.27 227.22 1.27L227.22 1.27Q226.96 1.27 226.96 1.03L226.96 1.03Q226.96 1 227 0.37 227.05-0.27 227.14-1.27 227.22-2.27 227.32-3.52 227.42-4.76 227.53-6.01 227.64-7.25 227.74-8.4 227.83-9.55 227.91-10.35ZM229.74-29.83L229.74-29.83Q229.81-30.88 229.85-31.45 229.88-32.01 229.91-32.29 229.93-32.57 229.93-32.64 229.93-32.71 229.95-32.75 229.96-32.79 229.97-32.9 229.98-33.01 230.01-33.36 230.03-33.72 230.08-34.4 230.13-35.08 230.23-36.28L230.23-36.28Q230.28-37.08 230.39-37.39 230.5-37.7 230.93-37.79L230.93-37.79Q233.01-38.21 235.28-38.66 237.55-39.11 239.67-39.82L239.67-39.82Q239.75-39.84 239.89-39.84L239.89-39.84Q239.97-39.7 240.09-39.65L240.09-39.65 240.16-39.6 239.63-32.91Q239.55-32.1 239.44-31.79 239.33-31.47 238.92-31.4L238.92-31.4Q236.84-31.01 234.72-30.54 232.59-30.08 230.23-29.61L230.23-29.61Q230.15-29.59 230.01-29.59L230.01-29.59Q229.74-29.59 229.74-29.83ZM242.65-0.07L242.33-6.74Q242.33-6.76 242.32-6.77 242.31-6.79 242.31-6.81L242.31-6.81Q242.31-7.13 242.65-7.13L242.65-7.13Q242.87-7.13 243.04-6.96L243.04-6.96Q244.02-6.03 245.28-5.44 246.53-4.86 248-4.86L248-4.86Q248.39-4.86 248.9-4.94 249.41-5.03 249.88-5.22 250.34-5.42 250.65-5.75 250.95-6.08 250.95-6.57L250.95-6.57Q250.95-7.1 250.68-7.56 250.41-8.01 249.98-8.3L249.98-8.3Q249.73-8.47 249.12-8.9 248.51-9.33 247.81-9.81 247.12-10.3 246.5-10.74 245.87-11.18 245.63-11.38L245.63-11.38Q244.53-12.21 243.88-13.06 243.24-13.92 242.89-14.83 242.55-15.75 242.46-16.75 242.36-17.75 242.36-18.87L242.36-18.87Q242.36-20.58 243.26-22.09 244.16-23.61 245.64-24.76 247.12-25.9 249-26.57 250.88-27.25 252.83-27.25L252.83-27.25Q254.44-27.25 256.01-26.76 257.57-26.27 258.91-25.1L258.91-25.1Q259.03-23.56 259.08-22.07 259.13-20.58 259.23-18.95L259.23-18.95Q259.23-18.63 259.08-18.52 258.93-18.41 258.74-18.41L258.74-18.41Q258.57-18.41 258.45-18.53L258.45-18.53Q257.89-19.07 257.3-19.59 256.71-20.12 256.07-20.52 255.42-20.92 254.69-21.18 253.95-21.44 253.12-21.44L253.12-21.44Q252.61-21.44 252.1-21.35 251.59-21.26 251.17-21.03 250.76-20.8 250.5-20.41 250.24-20.02 250.24-19.41L250.24-19.41Q250.24-18.7 250.41-18.19 250.59-17.68 251.22-17.19L251.22-17.19 255.76-14.11Q257.01-13.26 257.78-12.44 258.54-11.62 258.98-10.82 259.42-10.01 259.58-9.22 259.74-8.42 259.74-7.64L259.74-7.64Q259.74-5.44 258.73-3.77 257.71-2.1 256.1-0.99 254.49 0.12 252.45 0.7 250.41 1.27 248.36 1.27L248.36 1.27Q246.8 1.27 245.35 0.94 243.9 0.61 242.65-0.07L242.65-0.07ZM280.66-18.82L276.12-18.82Q275.78-16.26 275.47-13.71 275.17-11.16 275.09-8.94L275.09-8.94Q275.09-7.98 275.24-7.35 275.39-6.71 275.67-6.35 275.95-5.98 276.34-5.82 276.73-5.66 277.22-5.66L277.22-5.66Q278-5.66 278.93-5.9 279.86-6.13 280.78-6.49L280.78-6.49Q281.08-6.62 281.28-6.68 281.49-6.74 281.64-6.74L281.64-6.74Q281.88-6.74 281.97-6.52 282.05-6.3 282.14-5.75 282.22-5.2 282.39-4.27 282.57-3.34 282.96-1.93L282.96-1.93Q282.98-1.81 282.99-1.72 283-1.64 283-1.56L283-1.56Q283-1.22 282.75-1.07 282.49-0.93 281.91-0.73L281.91-0.73Q280.91-0.39 279.79-0.04 278.68 0.32 277.6 0.61 276.51 0.9 275.51 1.09 274.51 1.27 273.75 1.27L273.75 1.27Q269.67 1.27 267.81-0.76 265.94-2.78 265.94-6.93L265.94-6.93Q265.94-7.64 265.99-8.39 266.04-9.13 266.11-9.94L266.11-9.94Q266.35-12.38 266.54-14.56 266.72-16.75 266.92-18.75L266.92-18.75 264.35-18.75Q263.03-18.75 262.45-18.86 261.86-18.97 261.86-19.31L261.86-19.31Q261.86-19.41 262.11-19.84 262.35-20.26 262.73-20.86 263.11-21.46 263.55-22.14 263.99-22.83 264.39-23.43 264.79-24.02 265.08-24.46 265.38-24.9 265.45-25L265.45-25 267.18-25Q267.4-26.86 267.54-28.11 267.67-29.37 267.76-30.2 267.84-31.03 267.92-31.48 267.99-31.93 268.08-32.15 268.16-32.37 268.3-32.43 268.43-32.5 268.65-32.54L268.65-32.54Q269.75-32.76 270.77-32.95 271.8-33.13 272.82-33.33 273.85-33.52 274.91-33.78 275.97-34.03 277.12-34.38L277.12-34.38Q277.19-34.38 277.22-34.39 277.24-34.4 277.32-34.4L277.32-34.4Q277.61-34.4 277.61-34.2L277.61-34.2 277.61-34.16Q277.49-32.81 277.23-30.42 276.97-28.03 276.66-25L276.66-25 283.2-25Q283.4-25 283.58-24.87 283.76-24.73 283.76-24.41L283.76-24.41Q283.76-24.29 283.47-23.54 283.18-22.78 282.64-21.56L282.64-21.56 281.76-19.58Q281.59-19.21 281.41-19.04 281.22-18.87 280.66-18.82L280.66-18.82ZM307.25-27.44L305.73-19.87Q305.22-19.92 304.58-19.98 303.95-20.04 303.24-20.04L303.24-20.04Q302.17-20.04 301.06-19.86 299.95-19.68 298.99-19.14 298.04-18.6 297.36-17.66 296.67-16.72 296.48-15.23L296.48-15.23Q296.31-13.43 296.2-12.27 296.09-11.11 296.04-10.36 295.99-9.62 295.95-9.17 295.92-8.72 295.89-8.33L295.89-8.33Q295.89-8.23 295.86-7.79 295.82-7.35 295.75-6.76 295.67-6.18 295.61-5.49 295.55-4.81 295.48-4.22 295.4-3.64 295.37-3.2 295.33-2.76 295.33-2.66L295.33-2.66Q295.33-2.47 295.34-2.33 295.36-2.2 295.36-2.08L295.36-2.08Q295.36-1.88 295.17-1.75 294.99-1.61 294.35-1.44L294.35-1.44 287.89 0.88Q287.62 0.98 287.18 1.12 286.74 1.27 286.32 1.27L286.32 1.27Q285.98 1.27 285.72 1.1 285.47 0.93 285.47 0.51L285.47 0.51 287.57-23.68Q287.64-24.49 287.75-24.79 287.86-25.1 288.3-25.2L288.3-25.2Q290.52-25.63 292.89-26.09 295.26-26.54 297.48-27.25L297.48-27.25Q297.68-27.25 297.71-27.19 297.75-27.12 297.75-27L297.75-27Q297.75-26.95 297.74-26.86 297.72-26.76 297.66-26.42 297.6-26.07 297.49-25.38 297.38-24.68 297.19-23.44L297.19-23.44Q298.31-24.32 299.66-25.05 301.02-25.78 302.39-26.31 303.75-26.83 305.02-27.14 306.29-27.44 307.25-27.44L307.25-27.44ZM308.46-10.35L308.46-10.35Q308.78-13.7 309.1-16.97 309.42-20.24 309.66-23.68L309.66-23.68Q309.71-24.49 309.82-24.79 309.93-25.1 310.37-25.2L310.37-25.2Q312.44-25.61 314.71-26.06 316.98-26.51 319.11-27.22L319.11-27.22Q319.18-27.25 319.33-27.25L319.33-27.25Q319.6-27.25 319.6-27.05L319.6-27.05 317.4-3.27Q317.33-2.47 317.23-2.16 317.13-1.86 316.69-1.76L316.69-1.76Q314.62-1.12 312.49-0.34 310.37 0.44 308 1.25L308 1.25Q307.93 1.27 307.78 1.27L307.78 1.27Q307.51 1.27 307.51 1.03L307.51 1.03Q307.51 1 307.56 0.37 307.61-0.27 307.69-1.27 307.78-2.27 307.88-3.52 307.98-4.76 308.09-6.01 308.2-7.25 308.29-8.4 308.39-9.55 308.46-10.35ZM310.29-29.83L310.29-29.83Q310.37-30.88 310.4-31.45 310.44-32.01 310.47-32.29 310.49-32.57 310.49-32.64 310.49-32.71 310.5-32.75 310.51-32.79 310.53-32.9 310.54-33.01 310.56-33.36 310.59-33.72 310.64-34.4 310.69-35.08 310.78-36.28L310.78-36.28Q310.83-37.08 310.94-37.39 311.05-37.7 311.49-37.79L311.49-37.79Q313.57-38.21 315.84-38.66 318.11-39.11 320.23-39.82L320.23-39.82Q320.3-39.84 320.45-39.84L320.45-39.84Q320.52-39.7 320.65-39.65L320.65-39.65 320.72-39.6 320.18-32.91Q320.11-32.1 320-31.79 319.89-31.47 319.47-31.4L319.47-31.4Q317.4-31.01 315.28-30.54 313.15-30.08 310.78-29.61L310.78-29.61Q310.71-29.59 310.56-29.59L310.56-29.59Q310.29-29.59 310.29-29.83ZM333.88-17.43L333.07-7.96Q333.31-7.47 333.77-6.97 334.22-6.47 334.82-6.05 335.41-5.64 336.12-5.38 336.83-5.13 337.59-5.13L337.59-5.13Q338.64-5.13 339.56-5.94 340.49-6.76 341.19-8.14 341.88-9.52 342.27-11.29 342.67-13.06 342.67-14.97L342.67-14.97Q342.67-16.14 342.46-17.19 342.25-18.24 341.81-19.02 341.37-19.8 340.68-20.26 339.98-20.73 339-20.73L339-20.73Q337.42-20.73 336.1-19.8 334.78-18.87 333.88-17.43L333.88-17.43ZM323.99 1.2L323.99 1.2Q323.65 1.27 323.45 1.27L323.45 1.27Q322.67 1.27 322.67 0.34L322.67 0.34Q322.67 0.22 322.68 0.1 322.69-0.02 322.72-0.17L322.72-0.17 325.55-34.72Q325.55-34.79 325.56-34.86 325.58-34.94 325.58-34.99L325.58-34.99Q325.58-35.08 325.56-35.16 325.55-35.23 325.55-35.28L325.55-35.28Q325.55-35.5 325.71-35.63 325.87-35.77 326.53-35.94L326.53-35.94 333.39-37.57Q333.66-37.62 334.1-37.79 334.54-37.96 334.95-37.96L334.95-37.96Q335.27-37.96 335.55-37.82 335.83-37.67 335.83-37.26L335.83-37.26Q335.83-37.21 335.82-37.16 335.8-37.11 335.8-37.06L335.8-37.06Q335.78-36.94 335.68-35.99 335.59-35.03 335.46-33.68 335.34-32.32 335.19-30.77 335.05-29.22 334.93-27.87 334.8-26.51 334.71-25.56 334.61-24.61 334.58-24.49L334.58-24.49Q336.37-25.66 338.27-26.45 340.17-27.25 342.08-27.25L342.08-27.25Q344.59-27.25 346.42-26.21 348.26-25.17 349.45-23.45 350.65-21.73 351.22-19.48 351.8-17.24 351.8-14.84L351.8-14.84Q351.8-12.92 351.44-10.97 351.09-9.03 350.42-7.25 349.75-5.47 348.73-3.91 347.72-2.34 346.41-1.2 345.11-0.05 343.5 0.61 341.88 1.27 340 1.27L340 1.27Q337.73 1.27 335.85 0.27 333.97-0.73 332.36-2.32L332.36-2.32Q332.31-1.73 332.29-1.39 332.26-1.05 332.13-0.87 332-0.68 331.73-0.57 331.46-0.46 330.92-0.34L330.92-0.34Q330.65-0.27 329.98-0.11 329.31 0.05 328.37 0.26 327.43 0.46 326.3 0.71 325.16 0.95 323.99 1.2ZM383.07-27L380.77-3.03Q380.7-2.22 380.58-1.92 380.46-1.61 380.04-1.51L380.04-1.51Q377.97-0.93 375.71-0.33 373.45 0.27 371.32 1.25L371.32 1.25Q371.25 1.27 371.11 1.27L371.11 1.27Q370.91 1.27 370.87 1.17 370.84 1.07 370.84 0.95L370.84 0.95Q370.84 0.9 370.85 0.78 370.86 0.66 370.91 0.33 370.96 0 371.04-0.59 371.13-1.17 371.28-2.15L371.28-2.15Q368.54-0.37 366.43 0.45 364.32 1.27 362.68 1.27L362.68 1.27Q358.61 1.27 356.74-0.7 354.87-2.66 354.87-6.57L354.87-6.57Q354.87-7.28 354.89-8.02 354.92-8.76 355.04-9.55L355.04-9.55Q355.31-12.43 355.5-14.49 355.7-16.55 355.82-17.99 355.94-19.43 356.03-20.35 356.11-21.26 356.18-21.88 356.24-22.49 356.27-22.89 356.31-23.29 356.36-23.68L356.36-23.68Q356.46-24.46 356.54-24.78 356.63-25.1 357.09-25.2L357.09-25.2Q358.24-25.42 359.28-25.6 360.31-25.78 361.33-25.99 362.34-26.2 363.39-26.44 364.44-26.68 365.61-27.03L365.61-27.03Q365.66-27.03 365.71-27.04 365.76-27.05 365.81-27.05L365.81-27.05Q366.1-27.05 366.1-26.86L366.1-26.86 366.1-26.81Q366-25.98 365.93-25.24 365.86-24.51 365.78-23.74 365.71-22.97 365.62-22.09 365.54-21.22 365.42-20.06 365.29-18.9 365.12-17.38 364.95-15.87 364.71-13.87L364.71-13.87Q364.56-12.4 364.42-10.95 364.27-9.5 364.27-8.25L364.27-8.25Q364.27-7.57 364.37-6.99 364.46-6.42 364.72-6.02 364.98-5.62 365.39-5.4 365.81-5.18 366.47-5.18L366.47-5.18Q366.98-5.18 367.86-5.41 368.74-5.64 369.62-6.21 370.49-6.79 371.17-7.73 371.84-8.67 371.94-10.11L371.94-10.11Q372.11-12.52 372.24-14.15 372.37-15.77 372.47-16.88 372.57-17.99 372.64-18.75 372.72-19.51 372.78-20.2 372.84-20.9 372.89-21.69 372.94-22.49 372.98-23.68L372.98-23.68Q373.06-24.49 373.17-24.79 373.28-25.1 373.72-25.2L373.72-25.2Q375.94-25.63 378.26-26.09 380.58-26.54 382.8-27.25L382.8-27.25Q382.99-27.25 383.03-27.19 383.07-27.12 383.07-27L383.07-27ZM403.92-18.82L399.37-18.82Q399.03-16.26 398.73-13.71 398.42-11.16 398.35-8.94L398.35-8.94Q398.35-7.98 398.5-7.35 398.64-6.71 398.92-6.35 399.2-5.98 399.59-5.82 399.98-5.66 400.47-5.66L400.47-5.66Q401.25-5.66 402.18-5.9 403.11-6.13 404.04-6.49L404.04-6.49Q404.33-6.62 404.54-6.68 404.75-6.74 404.89-6.74L404.89-6.74Q405.14-6.74 405.22-6.52 405.31-6.3 405.39-5.75 405.48-5.2 405.65-4.27 405.82-3.34 406.21-1.93L406.21-1.93Q406.23-1.81 406.25-1.72 406.26-1.64 406.26-1.56L406.26-1.56Q406.26-1.22 406-1.07 405.75-0.93 405.16-0.73L405.16-0.73Q404.16-0.39 403.05-0.04 401.94 0.32 400.85 0.61 399.76 0.9 398.76 1.09 397.76 1.27 397.01 1.27L397.01 1.27Q392.93 1.27 391.06-0.76 389.19-2.78 389.19-6.93L389.19-6.93Q389.19-7.64 389.24-8.39 389.29-9.13 389.36-9.94L389.36-9.94Q389.61-12.38 389.79-14.56 389.97-16.75 390.17-18.75L390.17-18.75 387.61-18.75Q386.29-18.75 385.7-18.86 385.12-18.97 385.12-19.31L385.12-19.31Q385.12-19.41 385.36-19.84 385.6-20.26 385.98-20.86 386.36-21.46 386.8-22.14 387.24-22.83 387.64-23.43 388.05-24.02 388.34-24.46 388.63-24.9 388.71-25L388.71-25 390.44-25Q390.66-26.86 390.79-28.11 390.93-29.37 391.01-30.2 391.1-31.03 391.17-31.48 391.24-31.93 391.33-32.15 391.42-32.37 391.55-32.43 391.68-32.5 391.9-32.54L391.9-32.54Q393-32.76 394.03-32.95 395.05-33.13 396.08-33.33 397.1-33.52 398.17-33.78 399.23-34.03 400.38-34.38L400.38-34.38Q400.45-34.38 400.47-34.39 400.5-34.4 400.57-34.4L400.57-34.4Q400.86-34.4 400.86-34.2L400.86-34.2 400.86-34.16Q400.74-32.81 400.48-30.42 400.23-28.03 399.91-25L399.91-25 406.45-25Q406.65-25 406.83-24.87 407.02-24.73 407.02-24.41L407.02-24.41Q407.02-24.29 406.72-23.54 406.43-22.78 405.89-21.56L405.89-21.56 405.01-19.58Q404.84-19.21 404.66-19.04 404.48-18.87 403.92-18.82L403.92-18.82ZM409.65-10.35L409.65-10.35Q409.97-13.7 410.28-16.97 410.6-20.24 410.85-23.68L410.85-23.68Q410.9-24.49 411-24.79 411.11-25.1 411.55-25.2L411.55-25.2Q413.63-25.61 415.9-26.06 418.17-26.51 420.29-27.22L420.29-27.22Q420.37-27.25 420.51-27.25L420.51-27.25Q420.78-27.25 420.78-27.05L420.78-27.05 418.59-3.27Q418.51-2.47 418.41-2.16 418.32-1.86 417.88-1.76L417.88-1.76Q415.8-1.12 413.68-0.34 411.55 0.44 409.19 1.25L409.19 1.25Q409.11 1.27 408.97 1.27L408.97 1.27Q408.7 1.27 408.7 1.03L408.7 1.03Q408.7 1 408.75 0.37 408.8-0.27 408.88-1.27 408.97-2.27 409.06-3.52 409.16-4.76 409.27-6.01 409.38-7.25 409.48-8.4 409.58-9.55 409.65-10.35ZM411.48-29.83L411.48-29.83Q411.55-30.88 411.59-31.45 411.63-32.01 411.65-32.29 411.68-32.57 411.68-32.64 411.68-32.71 411.69-32.75 411.7-32.79 411.71-32.9 411.73-33.01 411.75-33.36 411.77-33.72 411.82-34.4 411.87-35.08 411.97-36.28L411.97-36.28Q412.02-37.08 412.13-37.39 412.24-37.7 412.68-37.79L412.68-37.79Q414.75-38.21 417.02-38.66 419.29-39.11 421.42-39.82L421.42-39.82Q421.49-39.84 421.64-39.84L421.64-39.84Q421.71-39.7 421.83-39.65L421.83-39.65 421.91-39.6 421.37-32.91Q421.3-32.1 421.19-31.79 421.08-31.47 420.66-31.4L420.66-31.4Q418.59-31.01 416.46-30.54 414.34-30.08 411.97-29.61L411.97-29.61Q411.9-29.59 411.75-29.59L411.75-29.59Q411.48-29.59 411.48-29.83ZM437.38 1.27L437.38 1.27Q433.94 1.27 431.34 0.15 428.74-0.98 426.98-2.84 425.22-4.71 424.34-7.14 423.47-9.57 423.47-12.18L423.47-12.18Q423.47-14.79 424.32-17.15 425.17-19.51 426.71-21.37 428.25-23.24 430.4-24.5 432.55-25.76 435.14-26.2L435.14-26.2Q435.53-26.22 435.53-26.37L435.53-26.37Q435.53-26.64 435.47-26.87 435.4-27.1 435.4-27.27L435.4-27.27Q435.4-27.54 435.5-27.64 435.6-27.73 435.72-27.73L435.72-27.73Q440.38-27.73 443.66-26.67 446.93-25.61 448.98-23.78 451.03-21.95 451.96-19.46 452.88-16.97 452.88-14.11L452.88-14.11Q452.88-10.47 451.66-7.62 450.44-4.76 448.33-2.78 446.22-0.81 443.4 0.23 440.58 1.27 437.38 1.27ZM432.87-12.45L432.87-12.45Q432.87-11.13 433.15-9.84 433.43-8.54 434.07-7.5 434.72-6.45 435.77-5.8 436.82-5.15 438.38-5.15L438.38-5.15Q439.51-5.2 440.35-5.65 441.19-6.1 441.8-6.82 442.41-7.54 442.81-8.45 443.22-9.35 443.45-10.31 443.68-11.28 443.78-12.21 443.88-13.13 443.88-13.89L443.88-13.89Q443.88-15.16 443.5-16.38 443.12-17.6 442.39-18.53 441.65-19.46 440.57-20.03 439.48-20.61 438.07-20.61L438.07-20.61Q436.6-20.61 435.6-19.74 434.6-18.87 434-17.6 433.4-16.33 433.13-14.93 432.87-13.53 432.87-12.45ZM482.2-0.78L476.27 0.88Q476 0.95 475.56 1.11 475.12 1.27 474.71 1.27L474.71 1.27Q474.37 1.27 474.11 1.1 473.85 0.93 473.85 0.51L473.85 0.51 473.85 0.37Q474-0.95 474.1-1.87 474.2-2.78 474.28-3.53 474.37-4.27 474.43-5.02 474.49-5.76 474.59-6.75 474.68-7.74 474.82-9.09 474.95-10.45 475.15-12.48L475.15-12.48Q475.27-13.72 475.37-15.01 475.47-16.31 475.47-17.41L475.47-17.41Q475.47-18.14 475.36-18.76 475.25-19.38 474.96-19.84 474.68-20.29 474.2-20.53 473.71-20.78 472.95-20.78L472.95-20.78Q472.39-20.78 471.4-20.53 470.41-20.29 469.43-19.73 468.46-19.17 467.7-18.25 466.94-17.33 466.85-15.99L466.85-15.99Q466.7-14.18 466.58-12.9 466.46-11.62 466.36-10.73 466.26-9.84 466.2-9.28 466.14-8.72 466.11-8.33L466.11-8.33Q466.09-8.23 466.04-7.79 465.99-7.35 465.93-6.74 465.87-6.13 465.81-5.44 465.75-4.76 465.69-4.15 465.63-3.54 465.59-3.1 465.55-2.66 465.55-2.56L465.55-2.56Q465.55-2.37 465.57-2.23 465.58-2.1 465.58-1.98L465.58-1.98Q465.58-1.78 465.39-1.65 465.21-1.51 464.58-1.34L464.58-1.34 458.11 0.88Q457.84 0.98 457.4 1.12 456.96 1.27 456.54 1.27L456.54 1.27Q456.2 1.27 455.95 1.1 455.69 0.93 455.69 0.51L455.69 0.51 457.91-24.44Q457.98-25.24 458.09-25.55 458.2-25.85 458.64-25.95L458.64-25.95Q460.87-26.39 463.21-26.84 465.55-27.29 467.77-28L467.77-28Q467.97-28 468.01-27.94 468.04-27.88 468.04-27.76L468.04-27.76Q468.04-27.71 468.03-27.61 468.02-27.51 467.96-27.17 467.9-26.83 467.79-26.14 467.68-25.44 467.48-24.19L467.48-24.19Q469.17-25.17 470.64-25.77 472.12-26.37 473.43-26.7 474.73-27.03 475.88-27.14 477.03-27.25 478.03-27.25L478.03-27.25Q481.47-27.25 483.03-25.16 484.6-23.07 484.6-18.9L484.6-18.9Q484.6-18.31 484.57-17.69 484.55-17.07 484.47-16.41L484.47-16.41 483.35-5.91Q483.23-4.88 483.2-4.02 483.18-3.15 483.18-2L483.18-2Q483.18-1.81 483.19-1.67 483.2-1.54 483.2-1.44L483.2-1.44Q483.2-1.22 483.02-1.1 482.84-0.98 482.2-0.78L482.2-0.78ZM523.56-33.89L531.17-35.94Q531.3-35.96 531.41-35.97 531.51-35.99 531.61-35.99L531.61-35.99Q532.05-35.99 532.32-35.71 532.59-35.42 532.69-34.72L532.69-34.72Q532.74-34.28 532.85-33.48 532.96-32.69 533.09-31.73 533.22-30.76 533.38-29.74 533.54-28.71 533.66-27.84 533.79-26.98 533.88-26.35 533.98-25.73 534.01-25.56L534.01-25.56Q534.54-21.24 534.96-18.63 535.37-16.02 535.54-14.77L535.54-14.77 537.18-1.56 536.93-0.81Q536.89-0.63 536.3-0.39 535.71-0.15 534.88 0.13 534.05 0.42 533.08 0.68 532.1 0.95 531.27 1.17 530.44 1.39 529.87 1.53 529.29 1.66 529.27 1.66L529.27 1.66Q528.68 1.66 528.34 0.81 528-0.05 527.78-1.37 527.56-2.69 527.43-4.25 527.29-5.81 527.12-7.25L527.12-7.25Q526.97-8.45 526.85-9.67 526.73-10.89 526.58-12.16L526.58-12.16 525.63-19.29 516.57-2.71Q516.16-2.12 515.74-1.87 515.33-1.61 514.96-1.61L514.96-1.61Q514.43-1.61 514.12-1.93 513.81-2.25 513.69-2.71L513.69-2.71Q513.23-4.25 512.9-5.31 512.57-6.37 512.29-7.25 512.01-8.13 511.76-8.96 511.52-9.79 511.21-10.88 510.91-11.96 510.53-13.44 510.15-14.92 509.62-17.07L509.62-17.07 508.86-13.55 505.34 1.37Q505.27 1.66 504.73 1.66L504.73 1.66Q504.22 1.66 503.33 1.46 502.44 1.27 501.47 0.99 500.51 0.71 499.59 0.4 498.68 0.1 498.14-0.15L498.14-0.15Q498.02-0.2 497.84-0.38 497.65-0.56 497.65-0.95L497.65-0.95Q497.65-1.05 497.73-1.37 497.8-1.68 497.91-2.11 498.02-2.54 498.15-2.98 498.29-3.42 498.41-3.76L498.41-3.76Q498.73-4.59 498.98-5.71 499.24-6.84 499.46-7.98 499.68-9.13 499.86-10.18 500.05-11.23 500.22-11.94L500.22-11.94 503.22-25.95 504.12-29.91Q504.29-30.66 504.45-31.38 504.61-32.1 504.73-32.69 504.85-33.28 504.93-33.64 505-34.01 505-34.06L505-34.06 511.1-35.94Q511.45-35.94 511.7-35.88 511.96-35.82 512.03-35.47L512.03-35.47 516.89-19.85 523.56-33.89ZM553.9 1.27L553.9 1.27Q550.46 1.27 547.86 0.15 545.26-0.98 543.5-2.84 541.74-4.71 540.86-7.14 539.98-9.57 539.98-12.18L539.98-12.18Q539.98-14.79 540.84-17.15 541.69-19.51 543.23-21.37 544.77-23.24 546.92-24.5 549.07-25.76 551.65-26.2L551.65-26.2Q552.04-26.22 552.04-26.37L552.04-26.37Q552.04-26.64 551.98-26.87 551.92-27.1 551.92-27.27L551.92-27.27Q551.92-27.54 552.02-27.64 552.12-27.73 552.24-27.73L552.24-27.73Q556.9-27.73 560.17-26.67 563.45-25.61 565.5-23.78 567.55-21.95 568.48-19.46 569.4-16.97 569.4-14.11L569.4-14.11Q569.4-10.47 568.18-7.62 566.96-4.76 564.85-2.78 562.74-0.81 559.92 0.23 557.1 1.27 553.9 1.27ZM549.38-12.45L549.38-12.45Q549.38-11.13 549.66-9.84 549.94-8.54 550.59-7.5 551.24-6.45 552.29-5.8 553.34-5.15 554.9-5.15L554.9-5.15Q556.02-5.2 556.87-5.65 557.71-6.1 558.32-6.82 558.93-7.54 559.33-8.45 559.74-9.35 559.97-10.31 560.2-11.28 560.3-12.21 560.39-13.13 560.39-13.89L560.39-13.89Q560.39-15.16 560.02-16.38 559.64-17.6 558.9-18.53 558.17-19.46 557.09-20.03 556-20.61 554.58-20.61L554.58-20.61Q553.12-20.61 552.12-19.74 551.12-18.87 550.52-17.6 549.92-16.33 549.65-14.93 549.38-13.53 549.38-12.45ZM590.49-8.33L591.01-13.89Q591.08-14.67 591.17-15.53 591.25-16.38 591.37-17.31L591.37-17.31Q590.81-18.77 589.79-19.69 588.76-20.61 587.22-20.61L587.22-20.61Q585.71-20.61 584.66-19.74 583.61-18.87 582.97-17.6 582.34-16.33 582.06-14.93 581.78-13.53 581.78-12.45L581.78-12.45Q581.78-11.13 581.94-9.84 582.1-8.54 582.45-7.5 582.8-6.45 583.39-5.8 583.98-5.15 584.85-5.15L584.85-5.15Q587-5.22 588.35-6.13 589.69-7.03 590.49-8.33L590.49-8.33ZM602.68-36.84L599.53-2.47Q599.53-2.42 599.52-2.36 599.5-2.29 599.5-2.25L599.5-2.25Q599.5-2.12 599.52-2.05 599.53-1.98 599.53-1.9L599.53-1.9Q599.53-1.68 599.37-1.55 599.21-1.42 598.55-1.25L598.55-1.25 592.01 0.88Q591.74 0.98 591.3 1.12 590.86 1.27 590.45 1.27L590.45 1.27Q590.1 1.27 589.85 1.1 589.59 0.93 589.59 0.46L589.59 0.46Q589.59 0.02 589.6-0.24 589.62-0.51 589.63-0.74 589.64-0.98 589.68-1.25 589.71-1.51 589.76-1.95L589.76-1.95Q587.93-0.49 585.99 0.39 584.05 1.27 581.9 1.27L581.9 1.27Q579.56 1.27 577.74 0.16 575.92-0.95 574.67-2.82 573.43-4.69 572.78-7.09 572.13-9.5 572.13-12.11L572.13-12.11Q572.13-15.5 573.25-18.3 574.36-21.09 576.26-23.08 578.17-25.07 580.7-26.16 583.24-27.25 586.1-27.25L586.1-27.25Q587.64-27.25 589.04-26.44 590.45-25.63 591.69-24.37L591.69-24.37Q591.76-25.56 591.86-26.97 591.96-28.37 592.06-29.82 592.15-31.27 592.25-32.69 592.35-34.11 592.42-35.28L592.42-35.28Q592.42-35.5 592.58-35.63 592.74-35.77 593.4-35.94L593.4-35.94 600.26-37.57Q600.53-37.62 600.97-37.79 601.41-37.96 601.82-37.96L601.82-37.96Q602.14-37.96 602.42-37.82 602.7-37.67 602.7-37.26L602.7-37.26Q602.7-37.21 602.69-37.05 602.68-36.89 602.68-36.84L602.68-36.84ZM619.52-27.25L619.52-27.25Q621.84-27.25 623.73-26.38 625.62-25.51 626.98-24.13 628.33-22.75 629.07-21.04 629.8-19.34 629.8-17.63L629.8-17.63Q629.8-16.11 628.87-14.59 627.94-13.06 626.27-11.84 624.6-10.62 622.25-9.86 619.91-9.11 617.1-9.11L617.1-9.11Q615.64-9.11 614.03-9.4L614.03-9.4Q614.12-8.35 614.64-7.59 615.15-6.84 615.93-6.35 616.71-5.86 617.7-5.63 618.69-5.4 619.74-5.4L619.74-5.4Q620.91-5.4 622-5.6 623.08-5.81 624.09-6.15 625.09-6.49 626.01-6.91 626.94-7.32 627.77-7.74L627.77-7.74Q627.99-7.79 628.15-7.82 628.31-7.86 628.46-7.86L628.46-7.86Q628.46-7.86 628.44-7.47 628.43-7.08 628.43-6.37 628.43-5.66 628.42-4.66 628.41-3.66 628.38-2.44L628.38-2.44Q628.46-2.32 628.48-2.2 628.5-2.08 628.5-2L628.5-2Q628.5-1.71 627.97-1.37 627.43-1.03 626.56-0.66 625.7-0.29 624.59 0.05 623.48 0.39 622.33 0.67 621.18 0.95 620.11 1.11 619.03 1.27 618.23 1.27L618.23 1.27Q615.59 1.27 613.11 0.35 610.63-0.56 608.72-2.27 606.8-3.98 605.65-6.42 604.51-8.86 604.51-11.91L604.51-11.91Q604.51-15.11 605.6-17.91 606.7-20.7 608.69-22.78 610.68-24.85 613.44-26.05 616.2-27.25 619.52-27.25ZM619.23-20.75L619.23-20.75Q618.23-20.75 617.38-20.32 616.54-19.9 615.85-19.1 615.15-18.31 614.64-17.2 614.12-16.09 613.81-14.75L613.81-14.75Q616.32-15.19 617.98-15.67 619.64-16.16 620.64-16.66 621.64-17.16 622.06-17.66 622.47-18.16 622.47-18.63L622.47-18.63Q622.47-19.07 622.14-19.46 621.81-19.85 621.33-20.14 620.84-20.43 620.26-20.59 619.69-20.75 619.23-20.75ZM634.53-20.65L634.53-20.65Q634.83-24 635.01-27.27 635.19-30.54 635.41-33.98L635.41-33.98Q635.46-34.79 635.57-35.1 635.68-35.4 636.12-35.5L636.12-35.5Q638.39-35.91 640.67-36.34 642.96-36.77 645.25-37.48L645.25-37.48Q645.32-37.5 645.47-37.5L645.47-37.5Q645.74-37.5 645.74-37.26L645.74-37.26 642.56-2.39 642.56-1.98Q642.56-1.76 642.39-1.62 642.22-1.49 641.59-1.32L641.59-1.32 635.19 1.03Q634.92 1.15 634.48 1.28 634.04 1.42 633.63 1.42L633.63 1.42Q633.29 1.42 633.03 1.25 632.77 1.07 632.77 0.66L632.77 0.66 632.77 0.51Q632.97-1.95 633.15-4.31 633.34-6.67 633.54-9.18 633.75-11.69 634-14.5 634.24-17.31 634.53-20.65ZM649.72-20.65L649.72-20.65Q650.01-24 650.19-27.27 650.37-30.54 650.59-33.98L650.59-33.98Q650.64-34.79 650.75-35.1 650.86-35.4 651.3-35.5L651.3-35.5Q653.57-35.91 655.86-36.34 658.14-36.77 660.43-37.48L660.43-37.48Q660.51-37.5 660.65-37.5L660.65-37.5Q660.92-37.5 660.92-37.26L660.92-37.26 657.75-2.39 657.75-1.98Q657.75-1.76 657.58-1.62 657.41-1.49 656.77-1.32L656.77-1.32 650.37 1.03Q650.11 1.15 649.67 1.28 649.23 1.42 648.81 1.42L648.81 1.42Q648.47 1.42 648.21 1.25 647.96 1.07 647.96 0.66L647.96 0.66 647.96 0.51Q648.15-1.95 648.34-4.31 648.52-6.67 648.73-9.18 648.93-11.69 649.18-14.5 649.42-17.31 649.72-20.65ZM663.85-10.35L663.85-10.35Q664.17-13.7 664.48-16.97 664.8-20.24 665.04-23.68L665.04-23.68Q665.09-24.49 665.2-24.79 665.31-25.1 665.75-25.2L665.75-25.2Q667.83-25.61 670.1-26.06 672.37-26.51 674.49-27.22L674.49-27.22Q674.57-27.25 674.71-27.25L674.71-27.25Q674.98-27.25 674.98-27.05L674.98-27.05 672.78-3.27Q672.71-2.47 672.61-2.16 672.52-1.86 672.08-1.76L672.08-1.76Q670-1.12 667.88-0.34 665.75 0.44 663.38 1.25L663.38 1.25Q663.31 1.27 663.16 1.27L663.16 1.27Q662.9 1.27 662.9 1.03L662.9 1.03Q662.9 1 662.95 0.37 662.99-0.27 663.08-1.27 663.16-2.27 663.26-3.52 663.36-4.76 663.47-6.01 663.58-7.25 663.68-8.4 663.78-9.55 663.85-10.35ZM665.68-29.83L665.68-29.83Q665.75-30.88 665.79-31.45 665.83-32.01 665.85-32.29 665.87-32.57 665.87-32.64 665.87-32.71 665.89-32.75 665.9-32.79 665.91-32.9 665.92-33.01 665.95-33.36 665.97-33.72 666.02-34.4 666.07-35.08 666.17-36.28L666.17-36.28Q666.22-37.08 666.33-37.39 666.44-37.7 666.88-37.79L666.88-37.79Q668.95-38.21 671.22-38.66 673.49-39.11 675.62-39.82L675.62-39.82Q675.69-39.84 675.84-39.84L675.84-39.84Q675.91-39.7 676.03-39.65L676.03-39.65 676.1-39.6 675.57-32.91Q675.49-32.1 675.38-31.79 675.27-31.47 674.86-31.4L674.86-31.4Q672.78-31.01 670.66-30.54 668.54-30.08 666.17-29.61L666.17-29.61Q666.09-29.59 665.95-29.59L665.95-29.59Q665.68-29.59 665.68-29.83ZM704.35-0.78L698.42 0.88Q698.15 0.95 697.71 1.11 697.27 1.27 696.85 1.27L696.85 1.27Q696.51 1.27 696.26 1.1 696 0.93 696 0.51L696 0.51 696 0.37Q696.15-0.95 696.24-1.87 696.34-2.78 696.43-3.53 696.51-4.27 696.57-5.02 696.63-5.76 696.73-6.75 696.83-7.74 696.96-9.09 697.1-10.45 697.29-12.48L697.29-12.48Q697.42-13.72 697.51-15.01 697.61-16.31 697.61-17.41L697.61-17.41Q697.61-18.14 697.5-18.76 697.39-19.38 697.11-19.84 696.83-20.29 696.34-20.53 695.85-20.78 695.1-20.78L695.1-20.78Q694.53-20.78 693.55-20.53 692.56-20.29 691.58-19.73 690.6-19.17 689.85-18.25 689.09-17.33 688.99-15.99L688.99-15.99Q688.85-14.18 688.72-12.9 688.6-11.62 688.5-10.73 688.41-9.84 688.35-9.28 688.28-8.72 688.26-8.33L688.26-8.33Q688.24-8.23 688.19-7.79 688.14-7.35 688.08-6.74 688.02-6.13 687.95-5.44 687.89-4.76 687.83-4.15 687.77-3.54 687.74-3.1 687.7-2.66 687.7-2.56L687.7-2.56Q687.7-2.37 687.71-2.23 687.72-2.1 687.72-1.98L687.72-1.98Q687.72-1.78 687.54-1.65 687.36-1.51 686.72-1.34L686.72-1.34 680.25 0.88Q679.98 0.98 679.54 1.12 679.1 1.27 678.69 1.27L678.69 1.27Q678.35 1.27 678.09 1.1 677.84 0.93 677.84 0.51L677.84 0.51 680.06-24.44Q680.13-25.24 680.24-25.55 680.35-25.85 680.79-25.95L680.79-25.95Q683.01-26.39 685.35-26.84 687.7-27.29 689.92-28L689.92-28Q690.12-28 690.15-27.94 690.19-27.88 690.19-27.76L690.19-27.76Q690.19-27.71 690.18-27.61 690.16-27.51 690.1-27.17 690.04-26.83 689.93-26.14 689.82-25.44 689.63-24.19L689.63-24.19Q691.31-25.17 692.79-25.77 694.27-26.37 695.57-26.7 696.88-27.03 698.03-27.14 699.17-27.25 700.17-27.25L700.17-27.25Q703.62-27.25 705.18-25.16 706.74-23.07 706.74-18.9L706.74-18.9Q706.74-18.31 706.72-17.69 706.69-17.07 706.62-16.41L706.62-16.41 705.5-5.91Q705.37-4.88 705.35-4.02 705.33-3.15 705.33-2L705.33-2Q705.33-1.81 705.34-1.67 705.35-1.54 705.35-1.44L705.35-1.44Q705.35-1.22 705.17-1.1 704.98-0.98 704.35-0.78L704.35-0.78ZM728.2-17.04L728.22-17.41Q727.98-17.97 727.55-18.55 727.12-19.14 726.56-19.63 726-20.12 725.34-20.42 724.68-20.73 723.95-20.73L723.95-20.73Q722.95-20.73 722.07-19.9 721.19-19.07 720.53-17.69 719.87-16.31 719.5-14.54 719.12-12.77 719.12-10.86L719.12-10.86Q719.12-9.69 719.32-8.65 719.53-7.62 719.97-6.84 720.41-6.05 721.11-5.59 721.8-5.13 722.78-5.13L722.78-5.13Q724.24-5.13 725.46-6.04 726.69-6.96 727.54-8.42L727.54-8.42Q727.56-8.94 727.61-9.64 727.66-10.35 727.74-11.36 727.81-12.38 727.92-13.76 728.03-15.14 728.2-17.04L728.2-17.04ZM738.82-25.71L736.3-2.66Q736.06-0.24 735.21 1.86 734.35 3.96 733.05 5.7 731.74 7.45 730.07 8.83 728.39 10.21 726.53 11.16 724.66 12.11 722.68 12.61 720.7 13.11 718.78 13.11L718.78 13.11Q717.75 13.11 716.68 13.04 715.6 12.96 714.58 12.76 713.55 12.55 712.62 12.17 711.7 11.79 710.96 11.21L710.96 11.21 710.96 11.18Q710.96 11.06 711.15 10.33 711.33 9.59 711.59 8.61 711.84 7.62 712.12 6.57 712.4 5.52 712.6 4.76L712.6 4.76Q712.7 4.42 712.79 4.3 712.89 4.17 713.01 4.17L713.01 4.17Q713.16 4.17 713.18 4.2L713.18 4.2Q713.89 4.66 714.51 4.97 715.14 5.27 715.83 5.46 716.53 5.64 717.36 5.71 718.19 5.79 719.29 5.79L719.29 5.79Q721 5.79 722.32 5.13 723.63 4.47 724.59 3.42 725.54 2.37 726.11 1.11 726.69-0.15 726.91-1.37L726.91-1.37Q725.15-0.2 723.34 0.54 721.53 1.27 719.7 1.27L719.7 1.27Q717.19 1.27 715.36 0.26 713.53-0.76 712.33-2.47 711.13-4.17 710.56-6.38 709.99-8.59 709.99-11.01L709.99-11.01Q709.99-12.92 710.34-14.86 710.69-16.8 711.39-18.6 712.09-20.41 713.11-21.98 714.14-23.56 715.48-24.73 716.82-25.9 718.46-26.57 720.09-27.25 722.02-27.25L722.02-27.25Q724.12-27.25 725.92-26.32 727.71-25.39 729.18-24.02L729.18-24.02Q729.22-24.46 729.25-24.72 729.27-24.98 729.37-25.12 729.47-25.27 729.7-25.34 729.93-25.42 730.37-25.51L730.37-25.51Q730.64-25.56 731.35-25.72 732.06-25.88 733.03-26.1 734.01-26.32 735.18-26.56 736.35-26.81 737.55-27.08L737.55-27.08Q737.84-27.15 738.09-27.15L738.09-27.15Q738.84-27.15 738.84-26.17L738.84-26.17Q738.84-26.05 738.84-25.94 738.84-25.83 738.82-25.71L738.82-25.71Z" opacity="1" transform="matrix(1,0,0,1,0,0)" fill="#ffffff" class="undefined-text-1" data-fill-palette-color="secondary" id="text-1"></path></svg></g></svg></g></svg></g></svg></g><g transform="matrix(1,0,0,1,0,0.5903406797450259)"><svg viewBox="0 0 159.99546835307413 236.13627189801585" height="236.13627189801585" width="159.99546835307413"><g><svg xmlns="http://www.w3.org/2000/svg" xmlns:xlink="http://www.w3.org/1999/xlink" version="1.1" x="0" y="0" viewBox="30.267000000000007 20.8768629913568 39.46499999999999 58.2461370086432" enable-background="new 0 0 100 100" xml:space="preserve" height="236.13627189801585" width="159.99546835307413" class="icon-icon-0" data-fill-palette-color="accent" id="icon-0"><path fill="#ffffff" d="M50.002 56.545" data-fill-palette-color="accent"></path><g fill="#ff9966" data-fill-palette-color="accent"><path fill="#ffffff" d="M43.885 50.771c-1.281 0-2.324-1.047-2.324-2.332 0-1.281 1.043-2.324 2.324-2.324 1.285 0 2.332 1.043 2.332 2.324C46.217 49.725 45.17 50.771 43.885 50.771zM43.885 47.717c-0.398 0-0.723 0.324-0.723 0.723 0 0.402 0.324 0.73 0.723 0.73 0.402 0 0.73-0.328 0.73-0.73C44.615 48.041 44.287 47.717 43.885 47.717z" data-fill-palette-color="accent"></path><path fill="#ffffff" d="M55.947 50.771c-1.285 0-2.332-1.047-2.332-2.332 0-1.281 1.047-2.324 2.332-2.324s2.328 1.043 2.328 2.324C58.275 49.725 57.232 50.771 55.947 50.771zM55.947 47.717c-0.402 0-0.73 0.324-0.73 0.723 0 0.402 0.328 0.73 0.73 0.73s0.727-0.328 0.727-0.73C56.674 48.041 56.35 47.717 55.947 47.717z" data-fill-palette-color="accent"></path></g><path fill="#ffffff" d="M54.979 55.971c0.078-0.109 0.137-0.219 0.172-0.312 0.156-0.41 0.238-1.254-0.934-2.277l-1.43-1.25c-1.488-1.305-4.078-1.32-5.59-0.039l-1.543 1.312c-1.188 1.012-1.113 1.852-0.965 2.258 0.035 0.094 0.094 0.203 0.168 0.312-0.047 0.082-0.094 0.164-0.121 0.242-0.148 0.484-0.066 1.238 1.184 2.094l1.152 0.773c0.781 0.535 1.809 0.828 2.891 0.828 1.109 0 2.16-0.309 2.957-0.863l1.023-0.715c1.238-0.863 1.316-1.625 1.164-2.109C55.08 56.143 55.029 56.057 54.979 55.971zM46.693 54.623l1.543-1.312c0.926-0.781 2.582-0.773 3.496 0.023l1.43 1.25c0.289 0.254 0.406 0.43 0.469 0.477-0.094 0.039-0.301 0.098-0.684 0.098h-6.059c-0.277 0-0.465-0.031-0.574-0.031-0.039 0-0.066 0.004-0.086 0.016C46.279 55.045 46.408 54.865 46.693 54.623zM53.029 57.021l-1.023 0.715c-1.035 0.727-3 0.734-4.035 0.023l-1.152-0.773c-0.113-0.078-0.207-0.148-0.281-0.211 0.098-0.012 0.211-0.016 0.352-0.016h6.059c0.16 0 0.289 0.008 0.391 0.02C53.264 56.85 53.162 56.928 53.029 57.021z" data-fill-palette-color="accent"></path><path fill="#ffffff" d="M69.732 49.588c0-8.301-6.492-15.238-15.168-17.09 5.098-3.914 4.535-10.016 4.527-10.094-0.121-1.082-1.43-1.887-2.391-1.363-3.895 2.148-20.07 15.617-20.758 16.188-0.086 0.07-0.133 0.16-0.195 0.246-3.375 3.16-5.48 7.414-5.48 12.113 0 6.168 2.758 11 7.441 13.957-2 4.035-3.703 9.004-5.043 14.867l3.117 0.711c1.285-5.602 2.895-10.324 4.781-14.129 2.727 1.117 5.863 1.781 9.434 1.781 3.527 0 6.652-0.684 9.379-1.82 1.898 3.699 3.535 8.34 4.852 13.863l3.109-0.742c-1.375-5.773-3.098-10.656-5.117-14.582C66.916 60.502 69.732 55.658 69.732 49.588zM47.967 32.014c-0.152 0.031-0.281 0.109-0.406 0.18-0.148 0.016-0.301 0.023-0.445 0.043 3.07-2.469 6.191-4.922 8.449-6.574C54.896 27.932 53.033 30.885 47.967 32.014zM33.471 49.588c0-3.941 1.832-7.512 4.781-10.113 0.059-0.055 0.137-0.117 0.199-0.168 2.984-2.547 7.055-4.129 11.551-4.129 9.113 0 16.527 6.465 16.527 14.41 0 8.496-6.488 13.984-16.531 13.984C39.803 63.572 33.471 58.213 33.471 49.588z" data-fill-palette-color="accent"></path></svg><g></g></g></svg></g></svg></g></svg><rect width="395.52" height="184.62661495597933" fill="none" stroke="none" visibility="hidden"></rect></g></svg></g></svg>